<mxfile host="app.diagrams.net" modified="2023-04-20T01:40:01.867Z" agent="Mozilla/5.0 (Windows NT 10.0; Win64; x64) AppleWebKit/537.36 (KHTML, like Gecko) Chrome/112.0.0.0 Safari/537.36" etag="-MU2MjqM53Fd2ANC74tv" version="21.2.1" type="github">
  <diagram id="C5RBs43oDa-KdzZeNtuy" name="Page-1">
    <mxGraphModel dx="472" dy="707" grid="1" gridSize="10" guides="1" tooltips="1" connect="1" arrows="1" fold="1" page="1" pageScale="1" pageWidth="827" pageHeight="1169" math="0" shadow="0">
      <root>
        <mxCell id="WIyWlLk6GJQsqaUBKTNV-0" />
        <mxCell id="WIyWlLk6GJQsqaUBKTNV-1" parent="WIyWlLk6GJQsqaUBKTNV-0" />
        <mxCell id="EMCxyHg4-kb57wSQ0Bh_-33" style="edgeStyle=orthogonalEdgeStyle;rounded=0;orthogonalLoop=1;jettySize=auto;html=1;exitX=0.5;exitY=1;exitDx=0;exitDy=0;endArrow=none;endFill=0;" edge="1" parent="WIyWlLk6GJQsqaUBKTNV-1" source="EMCxyHg4-kb57wSQ0Bh_-0">
          <mxGeometry relative="1" as="geometry">
            <mxPoint x="490" y="500" as="targetPoint" />
          </mxGeometry>
        </mxCell>
        <mxCell id="EMCxyHg4-kb57wSQ0Bh_-46" style="edgeStyle=orthogonalEdgeStyle;rounded=0;orthogonalLoop=1;jettySize=auto;html=1;exitX=1;exitY=0.5;exitDx=0;exitDy=0;entryX=0;entryY=0.5;entryDx=0;entryDy=0;endArrow=none;endFill=0;" edge="1" parent="WIyWlLk6GJQsqaUBKTNV-1" source="EMCxyHg4-kb57wSQ0Bh_-0" target="EMCxyHg4-kb57wSQ0Bh_-45">
          <mxGeometry relative="1" as="geometry" />
        </mxCell>
        <mxCell id="EMCxyHg4-kb57wSQ0Bh_-0" value="Flight" style="whiteSpace=wrap;html=1;align=center;" vertex="1" parent="WIyWlLk6GJQsqaUBKTNV-1">
          <mxGeometry x="430" y="400" width="100" height="40" as="geometry" />
        </mxCell>
        <mxCell id="EMCxyHg4-kb57wSQ0Bh_-17" value="" style="edgeStyle=orthogonalEdgeStyle;rounded=0;orthogonalLoop=1;jettySize=auto;html=1;shape=link;" edge="1" parent="WIyWlLk6GJQsqaUBKTNV-1" source="EMCxyHg4-kb57wSQ0Bh_-1" target="EMCxyHg4-kb57wSQ0Bh_-16">
          <mxGeometry relative="1" as="geometry" />
        </mxCell>
        <mxCell id="EMCxyHg4-kb57wSQ0Bh_-1" value="Hotel" style="whiteSpace=wrap;html=1;align=center;" vertex="1" parent="WIyWlLk6GJQsqaUBKTNV-1">
          <mxGeometry x="270" y="450" width="100" height="40" as="geometry" />
        </mxCell>
        <mxCell id="EMCxyHg4-kb57wSQ0Bh_-30" style="edgeStyle=orthogonalEdgeStyle;rounded=0;orthogonalLoop=1;jettySize=auto;html=1;exitX=0.5;exitY=1;exitDx=0;exitDy=0;entryX=0.5;entryY=0;entryDx=0;entryDy=0;endArrow=none;endFill=0;" edge="1" parent="WIyWlLk6GJQsqaUBKTNV-1" source="EMCxyHg4-kb57wSQ0Bh_-2" target="EMCxyHg4-kb57wSQ0Bh_-29">
          <mxGeometry relative="1" as="geometry" />
        </mxCell>
        <mxCell id="EMCxyHg4-kb57wSQ0Bh_-2" value="Reservation" style="whiteSpace=wrap;html=1;align=center;" vertex="1" parent="WIyWlLk6GJQsqaUBKTNV-1">
          <mxGeometry x="350" y="190" width="100" height="40" as="geometry" />
        </mxCell>
        <mxCell id="EMCxyHg4-kb57wSQ0Bh_-25" style="edgeStyle=orthogonalEdgeStyle;rounded=0;orthogonalLoop=1;jettySize=auto;html=1;exitX=1;exitY=0.5;exitDx=0;exitDy=0;entryX=0;entryY=0.5;entryDx=0;entryDy=0;endArrow=none;endFill=0;" edge="1" parent="WIyWlLk6GJQsqaUBKTNV-1" source="EMCxyHg4-kb57wSQ0Bh_-3" target="EMCxyHg4-kb57wSQ0Bh_-24">
          <mxGeometry relative="1" as="geometry" />
        </mxCell>
        <mxCell id="EMCxyHg4-kb57wSQ0Bh_-3" value="Agent" style="whiteSpace=wrap;html=1;align=center;" vertex="1" parent="WIyWlLk6GJQsqaUBKTNV-1">
          <mxGeometry x="75" y="190" width="100" height="40" as="geometry" />
        </mxCell>
        <mxCell id="EMCxyHg4-kb57wSQ0Bh_-10" style="edgeStyle=orthogonalEdgeStyle;rounded=0;orthogonalLoop=1;jettySize=auto;html=1;exitX=0;exitY=0.5;exitDx=0;exitDy=0;entryX=1;entryY=0.5;entryDx=0;entryDy=0;endArrow=none;endFill=0;" edge="1" parent="WIyWlLk6GJQsqaUBKTNV-1" source="EMCxyHg4-kb57wSQ0Bh_-5" target="EMCxyHg4-kb57wSQ0Bh_-9">
          <mxGeometry relative="1" as="geometry" />
        </mxCell>
        <mxCell id="EMCxyHg4-kb57wSQ0Bh_-5" value="Room" style="whiteSpace=wrap;html=1;align=center;" vertex="1" parent="WIyWlLk6GJQsqaUBKTNV-1">
          <mxGeometry x="270" y="590" width="100" height="40" as="geometry" />
        </mxCell>
        <mxCell id="EMCxyHg4-kb57wSQ0Bh_-11" style="edgeStyle=orthogonalEdgeStyle;rounded=0;orthogonalLoop=1;jettySize=auto;html=1;exitX=1;exitY=0.5;exitDx=0;exitDy=0;endArrow=none;endFill=0;" edge="1" parent="WIyWlLk6GJQsqaUBKTNV-1" source="EMCxyHg4-kb57wSQ0Bh_-6" target="EMCxyHg4-kb57wSQ0Bh_-9">
          <mxGeometry relative="1" as="geometry" />
        </mxCell>
        <mxCell id="EMCxyHg4-kb57wSQ0Bh_-57" style="edgeStyle=orthogonalEdgeStyle;rounded=0;orthogonalLoop=1;jettySize=auto;html=1;exitX=0;exitY=0.5;exitDx=0;exitDy=0;entryX=0;entryY=0.5;entryDx=0;entryDy=0;endArrow=none;endFill=0;" edge="1" parent="WIyWlLk6GJQsqaUBKTNV-1" source="EMCxyHg4-kb57wSQ0Bh_-6" target="EMCxyHg4-kb57wSQ0Bh_-56">
          <mxGeometry relative="1" as="geometry" />
        </mxCell>
        <mxCell id="EMCxyHg4-kb57wSQ0Bh_-6" value="Twin" style="rounded=1;arcSize=10;whiteSpace=wrap;html=1;align=center;" vertex="1" parent="WIyWlLk6GJQsqaUBKTNV-1">
          <mxGeometry x="30" y="530" width="100" height="40" as="geometry" />
        </mxCell>
        <mxCell id="EMCxyHg4-kb57wSQ0Bh_-14" style="edgeStyle=orthogonalEdgeStyle;rounded=0;orthogonalLoop=1;jettySize=auto;html=1;exitX=1;exitY=0.5;exitDx=0;exitDy=0;endArrow=none;endFill=0;" edge="1" parent="WIyWlLk6GJQsqaUBKTNV-1" source="EMCxyHg4-kb57wSQ0Bh_-7" target="EMCxyHg4-kb57wSQ0Bh_-9">
          <mxGeometry relative="1" as="geometry" />
        </mxCell>
        <mxCell id="EMCxyHg4-kb57wSQ0Bh_-58" style="edgeStyle=orthogonalEdgeStyle;rounded=0;orthogonalLoop=1;jettySize=auto;html=1;exitX=0;exitY=0.5;exitDx=0;exitDy=0;entryX=0;entryY=0.5;entryDx=0;entryDy=0;endArrow=none;endFill=0;" edge="1" parent="WIyWlLk6GJQsqaUBKTNV-1" source="EMCxyHg4-kb57wSQ0Bh_-7" target="EMCxyHg4-kb57wSQ0Bh_-56">
          <mxGeometry relative="1" as="geometry" />
        </mxCell>
        <mxCell id="EMCxyHg4-kb57wSQ0Bh_-7" value="Double" style="rounded=1;arcSize=10;whiteSpace=wrap;html=1;align=center;" vertex="1" parent="WIyWlLk6GJQsqaUBKTNV-1">
          <mxGeometry x="30" y="590" width="100" height="40" as="geometry" />
        </mxCell>
        <mxCell id="EMCxyHg4-kb57wSQ0Bh_-13" style="edgeStyle=orthogonalEdgeStyle;rounded=0;orthogonalLoop=1;jettySize=auto;html=1;exitX=1;exitY=0.5;exitDx=0;exitDy=0;entryX=0;entryY=0.5;entryDx=0;entryDy=0;endArrow=none;endFill=0;" edge="1" parent="WIyWlLk6GJQsqaUBKTNV-1" source="EMCxyHg4-kb57wSQ0Bh_-8" target="EMCxyHg4-kb57wSQ0Bh_-9">
          <mxGeometry relative="1" as="geometry" />
        </mxCell>
        <mxCell id="EMCxyHg4-kb57wSQ0Bh_-59" style="edgeStyle=orthogonalEdgeStyle;rounded=0;orthogonalLoop=1;jettySize=auto;html=1;exitX=0;exitY=0.5;exitDx=0;exitDy=0;entryX=0.5;entryY=0;entryDx=0;entryDy=0;endArrow=none;endFill=0;" edge="1" parent="WIyWlLk6GJQsqaUBKTNV-1" source="EMCxyHg4-kb57wSQ0Bh_-8" target="EMCxyHg4-kb57wSQ0Bh_-56">
          <mxGeometry relative="1" as="geometry" />
        </mxCell>
        <mxCell id="EMCxyHg4-kb57wSQ0Bh_-8" value="Studio" style="rounded=1;arcSize=10;whiteSpace=wrap;html=1;align=center;" vertex="1" parent="WIyWlLk6GJQsqaUBKTNV-1">
          <mxGeometry x="30" y="645" width="100" height="40" as="geometry" />
        </mxCell>
        <mxCell id="EMCxyHg4-kb57wSQ0Bh_-9" value="is a" style="shape=rhombus;perimeter=rhombusPerimeter;whiteSpace=wrap;html=1;align=center;" vertex="1" parent="WIyWlLk6GJQsqaUBKTNV-1">
          <mxGeometry x="160" y="580" width="80" height="50" as="geometry" />
        </mxCell>
        <mxCell id="EMCxyHg4-kb57wSQ0Bh_-18" style="edgeStyle=orthogonalEdgeStyle;rounded=0;orthogonalLoop=1;jettySize=auto;html=1;exitX=0.5;exitY=1;exitDx=0;exitDy=0;entryX=0.5;entryY=0;entryDx=0;entryDy=0;shape=link;" edge="1" parent="WIyWlLk6GJQsqaUBKTNV-1" source="EMCxyHg4-kb57wSQ0Bh_-16" target="EMCxyHg4-kb57wSQ0Bh_-5">
          <mxGeometry relative="1" as="geometry" />
        </mxCell>
        <mxCell id="EMCxyHg4-kb57wSQ0Bh_-16" value="has" style="shape=rhombus;perimeter=rhombusPerimeter;whiteSpace=wrap;html=1;align=center;" vertex="1" parent="WIyWlLk6GJQsqaUBKTNV-1">
          <mxGeometry x="275" y="530" width="90" height="40" as="geometry" />
        </mxCell>
        <mxCell id="EMCxyHg4-kb57wSQ0Bh_-19" value="1" style="text;html=1;align=center;verticalAlign=middle;resizable=0;points=[];autosize=1;strokeColor=none;fillColor=none;" vertex="1" parent="WIyWlLk6GJQsqaUBKTNV-1">
          <mxGeometry x="285" y="488" width="30" height="30" as="geometry" />
        </mxCell>
        <mxCell id="EMCxyHg4-kb57wSQ0Bh_-20" value="(1,n)" style="text;html=1;align=center;verticalAlign=middle;resizable=0;points=[];autosize=1;strokeColor=none;fillColor=none;" vertex="1" parent="WIyWlLk6GJQsqaUBKTNV-1">
          <mxGeometry x="330" y="560" width="50" height="30" as="geometry" />
        </mxCell>
        <mxCell id="EMCxyHg4-kb57wSQ0Bh_-21" value="1" style="text;html=1;align=center;verticalAlign=middle;resizable=0;points=[];autosize=1;strokeColor=none;fillColor=none;" vertex="1" parent="WIyWlLk6GJQsqaUBKTNV-1">
          <mxGeometry x="125" y="518" width="30" height="30" as="geometry" />
        </mxCell>
        <mxCell id="EMCxyHg4-kb57wSQ0Bh_-22" value="1" style="text;html=1;align=center;verticalAlign=middle;resizable=0;points=[];autosize=1;strokeColor=none;fillColor=none;" vertex="1" parent="WIyWlLk6GJQsqaUBKTNV-1">
          <mxGeometry x="145" y="668" width="30" height="30" as="geometry" />
        </mxCell>
        <mxCell id="EMCxyHg4-kb57wSQ0Bh_-23" value="1" style="text;html=1;align=center;verticalAlign=middle;resizable=0;points=[];autosize=1;strokeColor=none;fillColor=none;" vertex="1" parent="WIyWlLk6GJQsqaUBKTNV-1">
          <mxGeometry x="125" y="578" width="30" height="30" as="geometry" />
        </mxCell>
        <mxCell id="EMCxyHg4-kb57wSQ0Bh_-26" style="edgeStyle=orthogonalEdgeStyle;rounded=0;orthogonalLoop=1;jettySize=auto;html=1;exitX=1;exitY=0.5;exitDx=0;exitDy=0;entryX=0;entryY=0.5;entryDx=0;entryDy=0;shape=link;" edge="1" parent="WIyWlLk6GJQsqaUBKTNV-1" source="EMCxyHg4-kb57wSQ0Bh_-24" target="EMCxyHg4-kb57wSQ0Bh_-2">
          <mxGeometry relative="1" as="geometry" />
        </mxCell>
        <mxCell id="EMCxyHg4-kb57wSQ0Bh_-24" value="places" style="shape=rhombus;perimeter=rhombusPerimeter;whiteSpace=wrap;html=1;align=center;" vertex="1" parent="WIyWlLk6GJQsqaUBKTNV-1">
          <mxGeometry x="230" y="190" width="70" height="40" as="geometry" />
        </mxCell>
        <mxCell id="EMCxyHg4-kb57wSQ0Bh_-27" value="1" style="text;html=1;align=center;verticalAlign=middle;resizable=0;points=[];autosize=1;strokeColor=none;fillColor=none;" vertex="1" parent="WIyWlLk6GJQsqaUBKTNV-1">
          <mxGeometry x="185" y="178" width="30" height="30" as="geometry" />
        </mxCell>
        <mxCell id="EMCxyHg4-kb57wSQ0Bh_-28" value="(0,n)" style="text;html=1;align=center;verticalAlign=middle;resizable=0;points=[];autosize=1;strokeColor=none;fillColor=none;" vertex="1" parent="WIyWlLk6GJQsqaUBKTNV-1">
          <mxGeometry x="305" y="208" width="50" height="30" as="geometry" />
        </mxCell>
        <mxCell id="EMCxyHg4-kb57wSQ0Bh_-31" style="edgeStyle=orthogonalEdgeStyle;rounded=0;orthogonalLoop=1;jettySize=auto;html=1;exitX=0;exitY=1;exitDx=0;exitDy=0;entryX=0.5;entryY=0;entryDx=0;entryDy=0;endArrow=none;endFill=0;" edge="1" parent="WIyWlLk6GJQsqaUBKTNV-1" source="EMCxyHg4-kb57wSQ0Bh_-29" target="EMCxyHg4-kb57wSQ0Bh_-1">
          <mxGeometry relative="1" as="geometry" />
        </mxCell>
        <mxCell id="EMCxyHg4-kb57wSQ0Bh_-32" style="edgeStyle=orthogonalEdgeStyle;rounded=0;orthogonalLoop=1;jettySize=auto;html=1;exitX=1;exitY=1;exitDx=0;exitDy=0;entryX=0.5;entryY=0;entryDx=0;entryDy=0;endArrow=none;endFill=0;" edge="1" parent="WIyWlLk6GJQsqaUBKTNV-1" source="EMCxyHg4-kb57wSQ0Bh_-29" target="EMCxyHg4-kb57wSQ0Bh_-0">
          <mxGeometry relative="1" as="geometry" />
        </mxCell>
        <mxCell id="EMCxyHg4-kb57wSQ0Bh_-29" value="has a" style="shape=rhombus;perimeter=rhombusPerimeter;whiteSpace=wrap;html=1;align=center;" vertex="1" parent="WIyWlLk6GJQsqaUBKTNV-1">
          <mxGeometry x="330" y="290" width="90" height="50" as="geometry" />
        </mxCell>
        <mxCell id="EMCxyHg4-kb57wSQ0Bh_-35" style="edgeStyle=orthogonalEdgeStyle;rounded=0;orthogonalLoop=1;jettySize=auto;html=1;exitX=0.5;exitY=1;exitDx=0;exitDy=0;endArrow=none;endFill=0;shape=link;" edge="1" parent="WIyWlLk6GJQsqaUBKTNV-1" source="EMCxyHg4-kb57wSQ0Bh_-34" target="EMCxyHg4-kb57wSQ0Bh_-36">
          <mxGeometry relative="1" as="geometry">
            <mxPoint x="490" y="580" as="targetPoint" />
          </mxGeometry>
        </mxCell>
        <mxCell id="EMCxyHg4-kb57wSQ0Bh_-34" value="has a" style="shape=rhombus;perimeter=rhombusPerimeter;whiteSpace=wrap;html=1;align=center;" vertex="1" parent="WIyWlLk6GJQsqaUBKTNV-1">
          <mxGeometry x="440" y="500" width="100" height="40" as="geometry" />
        </mxCell>
        <mxCell id="EMCxyHg4-kb57wSQ0Bh_-36" value="seat" style="whiteSpace=wrap;html=1;align=center;" vertex="1" parent="WIyWlLk6GJQsqaUBKTNV-1">
          <mxGeometry x="440" y="600" width="100" height="40" as="geometry" />
        </mxCell>
        <mxCell id="EMCxyHg4-kb57wSQ0Bh_-37" value="1" style="text;html=1;align=center;verticalAlign=middle;resizable=0;points=[];autosize=1;strokeColor=none;fillColor=none;" vertex="1" parent="WIyWlLk6GJQsqaUBKTNV-1">
          <mxGeometry x="315" y="348" width="30" height="30" as="geometry" />
        </mxCell>
        <mxCell id="EMCxyHg4-kb57wSQ0Bh_-38" value="1" style="text;html=1;align=center;verticalAlign=middle;resizable=0;points=[];autosize=1;strokeColor=none;fillColor=none;" vertex="1" parent="WIyWlLk6GJQsqaUBKTNV-1">
          <mxGeometry x="435" y="298" width="30" height="30" as="geometry" />
        </mxCell>
        <mxCell id="EMCxyHg4-kb57wSQ0Bh_-40" value="(1,n)" style="text;html=1;align=center;verticalAlign=middle;resizable=0;points=[];autosize=1;strokeColor=none;fillColor=none;" vertex="1" parent="WIyWlLk6GJQsqaUBKTNV-1">
          <mxGeometry x="495" y="548" width="50" height="30" as="geometry" />
        </mxCell>
        <mxCell id="EMCxyHg4-kb57wSQ0Bh_-41" value="1" style="text;html=1;align=center;verticalAlign=middle;resizable=0;points=[];autosize=1;strokeColor=none;fillColor=none;" vertex="1" parent="WIyWlLk6GJQsqaUBKTNV-1">
          <mxGeometry x="495" y="468" width="30" height="30" as="geometry" />
        </mxCell>
        <mxCell id="EMCxyHg4-kb57wSQ0Bh_-44" value="payment" style="whiteSpace=wrap;html=1;align=center;" vertex="1" parent="WIyWlLk6GJQsqaUBKTNV-1">
          <mxGeometry x="700" y="400" width="100" height="40" as="geometry" />
        </mxCell>
        <mxCell id="EMCxyHg4-kb57wSQ0Bh_-47" style="edgeStyle=orthogonalEdgeStyle;rounded=0;orthogonalLoop=1;jettySize=auto;html=1;exitX=1;exitY=0.5;exitDx=0;exitDy=0;entryX=0;entryY=0.5;entryDx=0;entryDy=0;shape=link;" edge="1" parent="WIyWlLk6GJQsqaUBKTNV-1" source="EMCxyHg4-kb57wSQ0Bh_-45" target="EMCxyHg4-kb57wSQ0Bh_-44">
          <mxGeometry relative="1" as="geometry" />
        </mxCell>
        <mxCell id="EMCxyHg4-kb57wSQ0Bh_-45" value="has a" style="shape=rhombus;perimeter=rhombusPerimeter;whiteSpace=wrap;html=1;align=center;" vertex="1" parent="WIyWlLk6GJQsqaUBKTNV-1">
          <mxGeometry x="560" y="400" width="100" height="40" as="geometry" />
        </mxCell>
        <mxCell id="EMCxyHg4-kb57wSQ0Bh_-48" value="1" style="text;html=1;align=center;verticalAlign=middle;resizable=0;points=[];autosize=1;strokeColor=none;fillColor=none;" vertex="1" parent="WIyWlLk6GJQsqaUBKTNV-1">
          <mxGeometry x="525" y="388" width="30" height="30" as="geometry" />
        </mxCell>
        <mxCell id="EMCxyHg4-kb57wSQ0Bh_-49" value="(1,n)" style="text;html=1;align=center;verticalAlign=middle;resizable=0;points=[];autosize=1;strokeColor=none;fillColor=none;" vertex="1" parent="WIyWlLk6GJQsqaUBKTNV-1">
          <mxGeometry x="645" y="388" width="50" height="30" as="geometry" />
        </mxCell>
        <mxCell id="EMCxyHg4-kb57wSQ0Bh_-53" style="edgeStyle=orthogonalEdgeStyle;rounded=0;orthogonalLoop=1;jettySize=auto;html=1;exitX=0.5;exitY=1;exitDx=0;exitDy=0;entryX=0;entryY=0.5;entryDx=0;entryDy=0;endArrow=none;endFill=0;" edge="1" parent="WIyWlLk6GJQsqaUBKTNV-1" source="EMCxyHg4-kb57wSQ0Bh_-50" target="EMCxyHg4-kb57wSQ0Bh_-3">
          <mxGeometry relative="1" as="geometry" />
        </mxCell>
        <mxCell id="EMCxyHg4-kb57wSQ0Bh_-50" value="id" style="ellipse;whiteSpace=wrap;html=1;align=center;fontStyle=4;" vertex="1" parent="WIyWlLk6GJQsqaUBKTNV-1">
          <mxGeometry x="20" y="110" width="100" height="40" as="geometry" />
        </mxCell>
        <mxCell id="EMCxyHg4-kb57wSQ0Bh_-55" style="edgeStyle=orthogonalEdgeStyle;rounded=0;orthogonalLoop=1;jettySize=auto;html=1;exitX=0.5;exitY=1;exitDx=0;exitDy=0;entryX=0.5;entryY=0;entryDx=0;entryDy=0;endArrow=none;endFill=0;" edge="1" parent="WIyWlLk6GJQsqaUBKTNV-1" source="EMCxyHg4-kb57wSQ0Bh_-51" target="EMCxyHg4-kb57wSQ0Bh_-3">
          <mxGeometry relative="1" as="geometry" />
        </mxCell>
        <mxCell id="EMCxyHg4-kb57wSQ0Bh_-51" value="name" style="ellipse;whiteSpace=wrap;html=1;align=center;" vertex="1" parent="WIyWlLk6GJQsqaUBKTNV-1">
          <mxGeometry x="145" y="110" width="100" height="40" as="geometry" />
        </mxCell>
        <mxCell id="EMCxyHg4-kb57wSQ0Bh_-54" style="edgeStyle=orthogonalEdgeStyle;rounded=0;orthogonalLoop=1;jettySize=auto;html=1;exitX=0.5;exitY=0;exitDx=0;exitDy=0;entryX=0.5;entryY=1;entryDx=0;entryDy=0;endArrow=none;endFill=0;" edge="1" parent="WIyWlLk6GJQsqaUBKTNV-1" source="EMCxyHg4-kb57wSQ0Bh_-52" target="EMCxyHg4-kb57wSQ0Bh_-3">
          <mxGeometry relative="1" as="geometry" />
        </mxCell>
        <mxCell id="EMCxyHg4-kb57wSQ0Bh_-52" value="number" style="ellipse;whiteSpace=wrap;html=1;align=center;" vertex="1" parent="WIyWlLk6GJQsqaUBKTNV-1">
          <mxGeometry x="70" y="260" width="100" height="40" as="geometry" />
        </mxCell>
        <mxCell id="EMCxyHg4-kb57wSQ0Bh_-56" value="price" style="ellipse;whiteSpace=wrap;html=1;align=center;" vertex="1" parent="WIyWlLk6GJQsqaUBKTNV-1">
          <mxGeometry x="30" y="730" width="100" height="40" as="geometry" />
        </mxCell>
        <mxCell id="EMCxyHg4-kb57wSQ0Bh_-67" style="edgeStyle=orthogonalEdgeStyle;rounded=0;orthogonalLoop=1;jettySize=auto;html=1;exitX=0.5;exitY=0;exitDx=0;exitDy=0;entryX=0.4;entryY=1;entryDx=0;entryDy=0;entryPerimeter=0;endArrow=none;endFill=0;" edge="1" parent="WIyWlLk6GJQsqaUBKTNV-1" source="EMCxyHg4-kb57wSQ0Bh_-63" target="EMCxyHg4-kb57wSQ0Bh_-5">
          <mxGeometry relative="1" as="geometry" />
        </mxCell>
        <mxCell id="EMCxyHg4-kb57wSQ0Bh_-63" value="children" style="ellipse;whiteSpace=wrap;html=1;align=center;" vertex="1" parent="WIyWlLk6GJQsqaUBKTNV-1">
          <mxGeometry x="205" y="658" width="100" height="40" as="geometry" />
        </mxCell>
        <mxCell id="EMCxyHg4-kb57wSQ0Bh_-70" style="edgeStyle=orthogonalEdgeStyle;rounded=0;orthogonalLoop=1;jettySize=auto;html=1;exitX=0.5;exitY=0;exitDx=0;exitDy=0;entryX=0.57;entryY=1.05;entryDx=0;entryDy=0;entryPerimeter=0;endArrow=none;endFill=0;" edge="1" parent="WIyWlLk6GJQsqaUBKTNV-1" source="EMCxyHg4-kb57wSQ0Bh_-64" target="EMCxyHg4-kb57wSQ0Bh_-5">
          <mxGeometry relative="1" as="geometry">
            <mxPoint x="278" y="762" as="targetPoint" />
          </mxGeometry>
        </mxCell>
        <mxCell id="EMCxyHg4-kb57wSQ0Bh_-64" value="&lt;span style=&quot;border-bottom: 1px dotted&quot;&gt;number&lt;/span&gt;" style="ellipse;whiteSpace=wrap;html=1;align=center;" vertex="1" parent="WIyWlLk6GJQsqaUBKTNV-1">
          <mxGeometry x="255" y="710" width="100" height="40" as="geometry" />
        </mxCell>
        <mxCell id="EMCxyHg4-kb57wSQ0Bh_-69" style="edgeStyle=orthogonalEdgeStyle;rounded=0;orthogonalLoop=1;jettySize=auto;html=1;exitX=1;exitY=0.5;exitDx=0;exitDy=0;entryX=1;entryY=0.5;entryDx=0;entryDy=0;endArrow=none;endFill=0;" edge="1" parent="WIyWlLk6GJQsqaUBKTNV-1" source="EMCxyHg4-kb57wSQ0Bh_-65" target="EMCxyHg4-kb57wSQ0Bh_-5">
          <mxGeometry relative="1" as="geometry">
            <Array as="points">
              <mxPoint x="420" y="610" />
            </Array>
          </mxGeometry>
        </mxCell>
        <mxCell id="EMCxyHg4-kb57wSQ0Bh_-65" value="pets" style="ellipse;whiteSpace=wrap;html=1;align=center;" vertex="1" parent="WIyWlLk6GJQsqaUBKTNV-1">
          <mxGeometry x="340" y="680" width="100" height="40" as="geometry" />
        </mxCell>
        <mxCell id="EMCxyHg4-kb57wSQ0Bh_-76" style="edgeStyle=orthogonalEdgeStyle;rounded=0;orthogonalLoop=1;jettySize=auto;html=1;exitX=1;exitY=0.5;exitDx=0;exitDy=0;" edge="1" parent="WIyWlLk6GJQsqaUBKTNV-1" source="EMCxyHg4-kb57wSQ0Bh_-73">
          <mxGeometry relative="1" as="geometry">
            <mxPoint x="270" y="470" as="targetPoint" />
          </mxGeometry>
        </mxCell>
        <mxCell id="EMCxyHg4-kb57wSQ0Bh_-73" value="name" style="ellipse;whiteSpace=wrap;html=1;align=center;" vertex="1" parent="WIyWlLk6GJQsqaUBKTNV-1">
          <mxGeometry x="115" y="378" width="100" height="40" as="geometry" />
        </mxCell>
        <mxCell id="EMCxyHg4-kb57wSQ0Bh_-75" style="edgeStyle=orthogonalEdgeStyle;rounded=0;orthogonalLoop=1;jettySize=auto;html=1;exitX=1;exitY=0;exitDx=0;exitDy=0;entryX=0;entryY=0.5;entryDx=0;entryDy=0;" edge="1" parent="WIyWlLk6GJQsqaUBKTNV-1" source="EMCxyHg4-kb57wSQ0Bh_-74" target="EMCxyHg4-kb57wSQ0Bh_-1">
          <mxGeometry relative="1" as="geometry" />
        </mxCell>
        <mxCell id="EMCxyHg4-kb57wSQ0Bh_-74" value="address" style="ellipse;whiteSpace=wrap;html=1;align=center;" vertex="1" parent="WIyWlLk6GJQsqaUBKTNV-1">
          <mxGeometry x="120" y="440" width="100" height="40" as="geometry" />
        </mxCell>
        <mxCell id="EMCxyHg4-kb57wSQ0Bh_-81" style="edgeStyle=orthogonalEdgeStyle;rounded=0;orthogonalLoop=1;jettySize=auto;html=1;exitX=0;exitY=0.5;exitDx=0;exitDy=0;entryX=1;entryY=0.5;entryDx=0;entryDy=0;" edge="1" parent="WIyWlLk6GJQsqaUBKTNV-1" source="EMCxyHg4-kb57wSQ0Bh_-79" target="EMCxyHg4-kb57wSQ0Bh_-36">
          <mxGeometry relative="1" as="geometry" />
        </mxCell>
        <mxCell id="EMCxyHg4-kb57wSQ0Bh_-79" value="fare" style="ellipse;whiteSpace=wrap;html=1;align=center;" vertex="1" parent="WIyWlLk6GJQsqaUBKTNV-1">
          <mxGeometry x="580" y="600" width="100" height="40" as="geometry" />
        </mxCell>
        <mxCell id="EMCxyHg4-kb57wSQ0Bh_-82" style="edgeStyle=orthogonalEdgeStyle;rounded=0;orthogonalLoop=1;jettySize=auto;html=1;exitX=0;exitY=0.5;exitDx=0;exitDy=0;entryX=0.5;entryY=1;entryDx=0;entryDy=0;" edge="1" parent="WIyWlLk6GJQsqaUBKTNV-1" source="EMCxyHg4-kb57wSQ0Bh_-80" target="EMCxyHg4-kb57wSQ0Bh_-36">
          <mxGeometry relative="1" as="geometry" />
        </mxCell>
        <mxCell id="EMCxyHg4-kb57wSQ0Bh_-80" value="class" style="ellipse;whiteSpace=wrap;html=1;align=center;" vertex="1" parent="WIyWlLk6GJQsqaUBKTNV-1">
          <mxGeometry x="580" y="645" width="100" height="40" as="geometry" />
        </mxCell>
        <mxCell id="EMCxyHg4-kb57wSQ0Bh_-84" style="edgeStyle=orthogonalEdgeStyle;rounded=0;orthogonalLoop=1;jettySize=auto;html=1;exitX=0;exitY=0.5;exitDx=0;exitDy=0;entryX=0.5;entryY=0;entryDx=0;entryDy=0;" edge="1" parent="WIyWlLk6GJQsqaUBKTNV-1" source="EMCxyHg4-kb57wSQ0Bh_-83" target="EMCxyHg4-kb57wSQ0Bh_-2">
          <mxGeometry relative="1" as="geometry" />
        </mxCell>
        <mxCell id="EMCxyHg4-kb57wSQ0Bh_-83" value="code" style="ellipse;whiteSpace=wrap;html=1;align=center;fontStyle=4;" vertex="1" parent="WIyWlLk6GJQsqaUBKTNV-1">
          <mxGeometry x="400" y="80" width="100" height="40" as="geometry" />
        </mxCell>
        <mxCell id="EMCxyHg4-kb57wSQ0Bh_-90" style="edgeStyle=orthogonalEdgeStyle;rounded=0;orthogonalLoop=1;jettySize=auto;html=1;exitX=0;exitY=0.5;exitDx=0;exitDy=0;entryX=0.75;entryY=0;entryDx=0;entryDy=0;" edge="1" parent="WIyWlLk6GJQsqaUBKTNV-1" source="EMCxyHg4-kb57wSQ0Bh_-85" target="EMCxyHg4-kb57wSQ0Bh_-2">
          <mxGeometry relative="1" as="geometry" />
        </mxCell>
        <mxCell id="EMCxyHg4-kb57wSQ0Bh_-85" value="total" style="ellipse;whiteSpace=wrap;html=1;align=center;" vertex="1" parent="WIyWlLk6GJQsqaUBKTNV-1">
          <mxGeometry x="450" y="138" width="100" height="40" as="geometry" />
        </mxCell>
        <mxCell id="EMCxyHg4-kb57wSQ0Bh_-89" style="edgeStyle=orthogonalEdgeStyle;rounded=0;orthogonalLoop=1;jettySize=auto;html=1;exitX=0;exitY=0.5;exitDx=0;exitDy=0;entryX=0.75;entryY=1;entryDx=0;entryDy=0;" edge="1" parent="WIyWlLk6GJQsqaUBKTNV-1" source="EMCxyHg4-kb57wSQ0Bh_-87" target="EMCxyHg4-kb57wSQ0Bh_-2">
          <mxGeometry relative="1" as="geometry" />
        </mxCell>
        <mxCell id="EMCxyHg4-kb57wSQ0Bh_-87" value="date" style="ellipse;whiteSpace=wrap;html=1;align=center;" vertex="1" parent="WIyWlLk6GJQsqaUBKTNV-1">
          <mxGeometry x="460" y="230" width="100" height="40" as="geometry" />
        </mxCell>
        <mxCell id="EMCxyHg4-kb57wSQ0Bh_-92" style="edgeStyle=orthogonalEdgeStyle;rounded=0;orthogonalLoop=1;jettySize=auto;html=1;exitX=0.5;exitY=1;exitDx=0;exitDy=0;entryX=0.6;entryY=-0.025;entryDx=0;entryDy=0;entryPerimeter=0;" edge="1" parent="WIyWlLk6GJQsqaUBKTNV-1" source="EMCxyHg4-kb57wSQ0Bh_-91" target="EMCxyHg4-kb57wSQ0Bh_-0">
          <mxGeometry relative="1" as="geometry" />
        </mxCell>
        <mxCell id="EMCxyHg4-kb57wSQ0Bh_-91" value="number" style="ellipse;whiteSpace=wrap;html=1;align=center;fontStyle=4;" vertex="1" parent="WIyWlLk6GJQsqaUBKTNV-1">
          <mxGeometry x="500" y="290" width="100" height="40" as="geometry" />
        </mxCell>
        <mxCell id="EMCxyHg4-kb57wSQ0Bh_-98" style="edgeStyle=orthogonalEdgeStyle;rounded=0;orthogonalLoop=1;jettySize=auto;html=1;exitX=0;exitY=0.5;exitDx=0;exitDy=0;entryX=0.75;entryY=0;entryDx=0;entryDy=0;" edge="1" parent="WIyWlLk6GJQsqaUBKTNV-1" source="EMCxyHg4-kb57wSQ0Bh_-94" target="EMCxyHg4-kb57wSQ0Bh_-0">
          <mxGeometry relative="1" as="geometry" />
        </mxCell>
        <mxCell id="EMCxyHg4-kb57wSQ0Bh_-94" value="date" style="ellipse;whiteSpace=wrap;html=1;align=center;" vertex="1" parent="WIyWlLk6GJQsqaUBKTNV-1">
          <mxGeometry x="580" y="338" width="100" height="40" as="geometry" />
        </mxCell>
        <mxCell id="EMCxyHg4-kb57wSQ0Bh_-96" style="edgeStyle=orthogonalEdgeStyle;rounded=0;orthogonalLoop=1;jettySize=auto;html=1;exitX=0;exitY=0.5;exitDx=0;exitDy=0;entryX=0.91;entryY=1.05;entryDx=0;entryDy=0;entryPerimeter=0;" edge="1" parent="WIyWlLk6GJQsqaUBKTNV-1" source="EMCxyHg4-kb57wSQ0Bh_-95" target="EMCxyHg4-kb57wSQ0Bh_-0">
          <mxGeometry relative="1" as="geometry" />
        </mxCell>
        <mxCell id="EMCxyHg4-kb57wSQ0Bh_-95" value="airline" style="ellipse;whiteSpace=wrap;html=1;align=center;" vertex="1" parent="WIyWlLk6GJQsqaUBKTNV-1">
          <mxGeometry x="550" y="468" width="100" height="40" as="geometry" />
        </mxCell>
        <mxCell id="EMCxyHg4-kb57wSQ0Bh_-100" style="edgeStyle=orthogonalEdgeStyle;rounded=0;orthogonalLoop=1;jettySize=auto;html=1;exitX=0.5;exitY=1;exitDx=0;exitDy=0;entryX=0;entryY=0.5;entryDx=0;entryDy=0;" edge="1" parent="WIyWlLk6GJQsqaUBKTNV-1" source="EMCxyHg4-kb57wSQ0Bh_-99" target="EMCxyHg4-kb57wSQ0Bh_-0">
          <mxGeometry relative="1" as="geometry" />
        </mxCell>
        <mxCell id="EMCxyHg4-kb57wSQ0Bh_-99" value="route" style="ellipse;whiteSpace=wrap;html=1;align=center;" vertex="1" parent="WIyWlLk6GJQsqaUBKTNV-1">
          <mxGeometry x="360" y="348" width="100" height="40" as="geometry" />
        </mxCell>
        <mxCell id="EMCxyHg4-kb57wSQ0Bh_-103" style="edgeStyle=orthogonalEdgeStyle;rounded=0;orthogonalLoop=1;jettySize=auto;html=1;exitX=0.5;exitY=1;exitDx=0;exitDy=0;entryX=0.44;entryY=0;entryDx=0;entryDy=0;entryPerimeter=0;" edge="1" parent="WIyWlLk6GJQsqaUBKTNV-1" source="EMCxyHg4-kb57wSQ0Bh_-101" target="EMCxyHg4-kb57wSQ0Bh_-44">
          <mxGeometry relative="1" as="geometry" />
        </mxCell>
        <mxCell id="EMCxyHg4-kb57wSQ0Bh_-101" value="due" style="ellipse;whiteSpace=wrap;html=1;align=center;" vertex="1" parent="WIyWlLk6GJQsqaUBKTNV-1">
          <mxGeometry x="695" y="338" width="100" height="40" as="geometry" />
        </mxCell>
        <mxCell id="EMCxyHg4-kb57wSQ0Bh_-104" style="edgeStyle=orthogonalEdgeStyle;rounded=0;orthogonalLoop=1;jettySize=auto;html=1;exitX=0.5;exitY=0;exitDx=0;exitDy=0;entryX=0.5;entryY=1;entryDx=0;entryDy=0;" edge="1" parent="WIyWlLk6GJQsqaUBKTNV-1" source="EMCxyHg4-kb57wSQ0Bh_-102" target="EMCxyHg4-kb57wSQ0Bh_-44">
          <mxGeometry relative="1" as="geometry" />
        </mxCell>
        <mxCell id="EMCxyHg4-kb57wSQ0Bh_-102" value="amount" style="ellipse;whiteSpace=wrap;html=1;align=center;" vertex="1" parent="WIyWlLk6GJQsqaUBKTNV-1">
          <mxGeometry x="700" y="498" width="100" height="40" as="geometry" />
        </mxCell>
      </root>
    </mxGraphModel>
  </diagram>
</mxfile>
